<svg width="1440" height="360" viewBox="0 0 1440 360" xmlns="http://www.w3.org/2000/svg"><defs><linearGradient id="grad1" x1="0%" y1="0%" x2="100%" y2="100%"><stop offset="0%" style="stop-color:#a29bfe;stop-opacity:1" /><stop offset="100%" style="stop-color:#6c5ce7;stop-opacity:1" /></linearGradient></defs><rect width="1440" height="360" fill="#121212" rx="15"/><g transform="translate(120, 90) scale(1.5)" opacity="0.8"><rect x="0" y="0" width="80" height="100" fill="none" stroke="url(#grad1)" stroke-width="2" rx="4"/><rect x="5" y="5" width="10" height="10" fill="url(#grad1)" rx="1"/><rect x="5" y="25" width="10" height="10" fill="url(#grad1)" rx="1"/><rect x="5" y="45" width="10" height="10" fill="url(#grad1)" rx="1"/><rect x="5" y="65" width="10" height="10" fill="url(#grad1)" rx="1"/><rect x="5" y="85" width="10" height="10" fill="url(#grad1)" rx="1"/><rect x="65" y="5" width="10" height="10" fill="url(#grad1)" rx="1"/><rect x="65" y="25" width="10" height="10" fill="url(#grad1)" rx="1"/><rect x="65" y="45" width="10" height="10" fill="url(#grad1)" rx="1"/><rect x="65" y="65" width="10" height="10" fill="url(#grad1)" rx="1"/><rect x="65" y="85" width="10" height="10" fill="url(#grad1)" rx="1"/><path d="M25 50 Q40 20 55 50" stroke="url(#grad1)" stroke-width="2" fill="none" opacity="0.6"/><path d="M30 55 Q40 35 50 55" stroke="url(#grad1)" stroke-width="2" fill="none" opacity="0.8"/><path d="M35 60 Q40 50 45 60" stroke="url(#grad1)" stroke-width="2" fill="none"/><path d="M25 65 Q40 95 55 65" stroke="url(#grad1)" stroke-width="2" fill="none" opacity="0.4"/></g><g transform="translate(300, 140) scale(1.5)" opacity="0.6"><rect x="0" y="10" width="4" height="20" fill="url(#grad1)" rx="2"/><rect x="10" y="0" width="4" height="40" fill="url(#grad1)" rx="2"/><rect x="20" y="5" width="4" height="30" fill="url(#grad1)" rx="2"/><rect x="30" y="15" width="8" height="10" fill="url(#grad1)" rx="2"/><rect x="40" y="0" width="4" height="40" fill="url(#grad1)" rx="2"/><rect x="50" y="8" width="4" height="24" fill="url(#grad1)" rx="2"/></g><g transform="translate(480, 190)"><text font-family="Segoe UI, Helvetica, Arial, sans-serif" font-size="80" font-weight="bold" fill="white">intro-fingerprint</text><text font-family="Segoe UI, Helvetica, Arial, sans-serif" font-size="32" fill="#b2bec3" transform="translate(5, 55)">Automated Intro Skipping for MPV</text></g><rect x="480" y="265" width="800" height="4" fill="url(#grad1)" opacity="0.3" rx="2"/></svg>
